<svg display="none" xmlns="http://www.w3.org/2000/svg">
    <symbol id="pen" viewBox="0 0 15 15" fill="none">
        <path d="M5.29586 13.1238L1.89359 9.72152L10.1226 1.49255L13.5248 4.89482L5.29586 13.1238ZM1.57557 10.3208L4.69655 13.4418L0.017334 15L1.57557 10.3208ZM14.5713 3.85287L13.9811 4.44299L10.5744 1.03623L11.1645 0.446105C11.7589 -0.148702 12.7229 -0.148702 13.3174 0.446105L14.5713 1.70001C15.1614 2.29643 15.1614 3.25662 14.5713 3.85287Z" fill="#A7A7A7"/>
    </symbol>
    <symbol id="check" viewBox="0 0 9 8" fill="none">
        <path d="M3.44899 7.76379C3.36328 7.84996 3.24641 7.89808 3.12495 7.89808C3.00349 7.89808 2.88661 7.84996 2.80091 7.76379L0.213156 5.17558C-0.0554271 4.907 -0.0554271 4.47158 0.213156 4.20346L0.537198 3.87942C0.805781 3.61083 1.24074 3.61083 1.50932 3.87942L3.12495 5.49504L7.49057 1.12942C7.75916 0.860833 8.19457 0.860833 8.4627 1.12942L8.78674 1.45346C9.05532 1.72204 9.05532 2.15746 8.78674 2.42558L3.44899 7.76379Z" fill="white"/>
    </symbol>
</svg>
